<svg width="758" height="735" viewBox="0 0 758 735" fill="none" xmlns="http://www.w3.org/2000/svg">
<g clip-path="url(#clip0_457_29)">
<rect width="758" height="735" fill="white"/>
<rect width="758" height="735" fill="#F6FDFF"/>
<rect x="435.461" y="583.082" width="290" height="63" rx="31.5" transform="rotate(4.89779 435.461 583.082)" stroke="#7AD6FF" stroke-width="2"/>
<rect x="110.24" y="154.327" width="376" height="63" rx="31.5" transform="rotate(-16.2296 110.24 154.327)" stroke="#7AD6FF" stroke-width="2"/>
<path d="M159.855 187.794L151.724 159.862L155.107 158.878L158.727 171.316L173.621 166.981L170 154.542L173.382 153.558L181.513 181.489L178.131 182.474L174.494 169.981L159.601 174.316L163.237 186.809L159.855 187.794ZM188.328 179.506L182.23 158.557L185.449 157.62L191.547 178.569L188.328 179.506ZM182.85 154.589C182.223 154.772 181.62 154.715 181.041 154.42C180.471 154.123 180.099 153.674 179.924 153.074C179.749 152.474 179.822 151.895 180.144 151.338C180.474 150.778 180.953 150.407 181.58 150.225C182.207 150.042 182.806 150.1 183.376 150.397C183.955 150.692 184.332 151.14 184.506 151.74C184.681 152.34 184.603 152.92 184.273 153.48C183.952 154.037 183.478 154.406 182.85 154.589ZM206.559 174.672C204.596 175.244 202.769 175.272 201.081 174.758C199.393 174.243 197.93 173.283 196.692 171.878C195.455 170.473 194.532 168.725 193.923 166.634C193.304 164.506 193.148 162.515 193.456 160.659C193.771 158.793 194.499 157.195 195.641 155.866C196.79 154.526 198.309 153.581 200.201 153.03C201.674 152.601 203.08 152.488 204.421 152.689C205.762 152.891 206.953 153.372 207.993 154.135C209.034 154.897 209.835 155.906 210.398 157.163L207.18 158.1C206.656 157.216 205.865 156.53 204.805 156.039C203.751 155.537 202.515 155.493 201.097 155.906C199.842 156.271 198.837 156.918 198.082 157.848C197.333 158.766 196.868 159.893 196.684 161.229C196.507 162.552 196.649 164.005 197.11 165.587C197.581 167.206 198.246 168.541 199.104 169.593C199.972 170.642 200.971 171.363 202.1 171.754C203.239 172.142 204.445 172.151 205.718 171.781C206.554 171.537 207.271 171.171 207.868 170.681C208.466 170.192 208.921 169.606 209.235 168.922C209.549 168.239 209.695 167.487 209.673 166.665L212.892 165.728C213.07 167.017 212.944 168.262 212.514 169.462C212.091 170.651 211.377 171.706 210.374 172.63C209.377 173.541 208.105 174.222 206.559 174.672ZM228.766 168.208C226.747 168.796 224.876 168.857 223.153 168.392C221.436 167.915 219.948 166.988 218.689 165.608C217.436 164.218 216.497 162.449 215.872 160.304C215.248 158.158 215.088 156.153 215.394 154.288C215.706 152.413 216.433 150.81 217.574 149.482C218.723 148.141 220.243 147.196 222.134 146.645C223.225 146.328 224.355 146.196 225.525 146.25C226.695 146.304 227.835 146.613 228.946 147.178C230.055 147.733 231.062 148.603 231.97 149.789C232.877 150.975 233.615 152.545 234.184 154.5L234.581 155.864L218.433 160.564L217.623 157.782L230.498 154.034C230.154 152.852 229.611 151.866 228.868 151.076C228.134 150.284 227.258 149.745 226.238 149.46C225.227 149.173 224.139 149.198 222.976 149.537C221.694 149.91 220.677 150.551 219.926 151.46C219.181 152.358 218.705 153.384 218.499 154.538C218.293 155.693 218.358 156.848 218.694 158.003L219.234 159.858C219.694 161.44 220.357 162.701 221.223 163.643C222.095 164.572 223.106 165.181 224.255 165.468C225.401 165.746 226.624 165.695 227.924 165.317C228.77 165.071 229.499 164.73 230.112 164.295C230.732 163.849 231.221 163.312 231.581 162.684C231.938 162.048 232.147 161.326 232.208 160.519L235.572 160.487C235.552 161.637 235.272 162.724 234.732 163.749C234.189 164.765 233.414 165.662 232.407 166.438C231.398 167.205 230.184 167.795 228.766 168.208ZM253.232 147.653L254.105 150.654L242.54 154.02L241.666 151.02L253.232 147.653ZM239.81 141.796L245.908 162.745L242.689 163.682L236.591 142.733L239.81 141.796ZM253.066 137.937L259.164 158.886L255.946 159.823L249.848 138.874L253.066 137.937ZM265.523 157.035L259.425 136.087L262.643 135.15L268.741 156.098L265.523 157.035ZM260.045 132.119C259.418 132.301 258.814 132.245 258.235 131.95C257.665 131.652 257.293 131.204 257.118 130.603C256.944 130.003 257.017 129.425 257.338 128.868C257.668 128.308 258.147 127.937 258.775 127.754C259.402 127.572 260.001 127.629 260.57 127.927C261.149 128.222 261.526 128.669 261.701 129.27C261.876 129.87 261.798 130.45 261.468 131.009C261.147 131.566 260.672 131.936 260.045 132.119ZM268.692 136.644L267.818 133.643L284.839 128.689L285.713 131.689L278.839 133.69L284.063 151.638L280.845 152.575L275.62 134.627L268.692 136.644ZM306.655 132.102L307.528 135.103L295.963 138.47L295.089 135.469L306.655 132.102ZM293.233 126.245L299.331 147.194L296.112 148.131L290.014 127.182L293.233 126.245ZM306.49 122.386L312.588 143.335L309.369 144.272L303.271 123.323L306.49 122.386ZM320.783 135.801L326.159 116.661L329.869 115.581L335.967 136.53L332.748 137.467L328.032 121.264L322.71 140.389L318.946 141.484L312.848 120.536L316.067 119.599L320.783 135.801ZM352.719 108.93L357.944 126.878L360.89 126.02L363.732 135.785L360.514 136.722L358.544 129.958L342.342 134.674L336.244 113.725L339.463 112.788L344.687 130.737L354.725 127.815L349.501 109.867L352.719 108.93ZM379.428 123.879L374.187 105.876L368.623 107.496C367.368 107.861 366.466 108.439 365.917 109.23C365.368 110.021 365.242 110.926 365.539 111.944C365.83 112.944 366.381 113.637 367.194 114.022C368.015 114.404 368.994 114.43 370.131 114.099L376.895 112.13L377.769 115.13L371.004 117.099C369.586 117.512 368.29 117.618 367.117 117.417C365.944 117.216 364.945 116.733 364.121 115.967C363.293 115.192 362.693 114.163 362.32 112.881C361.944 111.59 361.912 110.396 362.224 109.299C362.536 108.202 363.16 107.247 364.097 106.431C365.042 105.614 366.265 104.987 367.765 104.55L376.385 102.041L382.483 122.99L379.428 123.879ZM365.462 127.944L368.375 115.793L371.867 114.777L368.953 126.928L365.462 127.944Z" fill="black"/>
<path d="M434.504 101.702L444.135 84.1612L441.298 82.6437L433.232 97.3334L425.794 93.2494L424.263 96.0386L434.504 101.702ZM440.383 111.343C437.662 112.135 434.992 112.383 432.371 112.087C429.751 111.791 427.325 111.03 425.093 109.805C422.862 108.58 420.918 106.941 419.262 104.889C417.606 102.837 416.382 100.45 415.59 97.7299C414.807 95.0415 414.564 92.3871 414.86 89.7665C415.156 87.146 415.917 84.7201 417.142 82.4888C418.367 80.2574 420.004 78.3056 422.051 76.6334C424.099 74.9611 426.483 73.7291 429.203 72.9372C431.892 72.1546 434.548 71.9194 437.174 72.2315C439.799 72.5435 442.227 73.3122 444.458 74.5373C446.69 75.7625 448.641 77.3989 450.314 79.4465C451.986 81.494 453.213 83.862 453.996 86.5504C454.788 89.2709 455.028 91.9437 454.716 94.5688C454.404 97.194 453.635 99.6223 452.41 101.854C451.185 104.085 449.546 106.029 447.494 107.685C445.441 109.341 443.071 110.561 440.383 111.343ZM439.544 108.463C444.185 107.112 447.611 104.422 449.824 100.393C452.036 96.3644 452.466 92.0296 451.115 87.3889C449.765 82.7482 447.075 79.3217 443.046 77.1096C439.017 74.8974 434.682 74.4668 430.042 75.8177C425.401 77.1685 421.974 79.8583 419.762 83.8872C417.55 87.916 417.12 92.2508 418.47 96.8915C419.821 101.532 422.511 104.959 426.54 107.171C430.569 109.383 434.903 109.814 439.544 108.463Z" fill="black"/>
<path d="M494.069 634.272L496.553 605.288L514.045 606.787L513.779 609.9L499.796 608.702L499.02 617.76L506.379 618.39C508.455 618.568 510.176 619.058 511.542 619.859C512.918 620.662 513.921 621.712 514.551 623.011C515.191 624.311 515.439 625.801 515.295 627.48C515.151 629.16 514.651 630.609 513.796 631.828C512.95 633.049 511.779 633.96 510.282 634.564C508.795 635.168 507.014 635.382 504.938 635.204L494.069 634.272ZM497.841 631.516L505.2 632.147C506.521 632.26 507.662 632.092 508.622 631.642C509.593 631.183 510.35 630.554 510.894 629.755C511.448 628.947 511.765 628.071 511.846 627.128C511.965 625.741 511.534 624.502 510.554 623.41C509.574 622.309 508.094 621.674 506.112 621.504L498.753 620.873L497.841 631.516ZM526.739 637.585C525.361 637.467 524.133 637.101 523.055 636.485C521.977 635.861 521.151 635.025 520.575 633.978C520 632.921 519.774 631.685 519.895 630.27C520.002 629.024 520.334 628.036 520.89 627.304C521.448 626.563 522.156 626.006 523.015 625.633C523.874 625.26 524.808 625.007 525.818 624.875C526.837 624.734 527.857 624.641 528.878 624.595C530.214 624.539 531.295 624.503 532.124 624.489C532.962 624.465 533.579 624.361 533.975 624.177C534.381 623.993 534.606 623.632 534.652 623.094L534.662 622.981C534.782 621.585 534.493 620.467 533.795 619.628C533.106 618.789 531.993 618.304 530.455 618.173C528.86 618.036 527.58 618.278 526.615 618.898C525.649 619.519 524.948 620.21 524.513 620.971L521.439 619.567C522.119 618.295 522.962 617.331 523.968 616.676C524.985 616.012 526.067 615.582 527.215 615.386C528.373 615.181 529.5 615.125 530.594 615.219C531.292 615.279 532.087 615.433 532.978 615.68C533.88 615.919 534.733 616.329 535.539 616.912C536.354 617.495 537 618.325 537.478 619.402C537.956 620.479 538.121 621.88 537.973 623.607L536.746 637.929L533.406 637.643L533.658 634.7L533.488 634.685C533.221 635.137 532.801 635.61 532.226 636.102C531.652 636.595 530.91 636.992 530 637.294C529.09 637.597 528.003 637.694 526.739 637.585ZM527.505 634.628C528.826 634.742 529.962 634.578 530.912 634.136C531.872 633.696 532.618 633.085 533.15 632.304C533.692 631.523 534.002 630.68 534.08 629.774L534.342 626.717C534.186 626.875 533.861 627.004 533.368 627.104C532.885 627.196 532.327 627.267 531.696 627.318C531.074 627.359 530.468 627.393 529.877 627.418C529.295 627.435 528.823 627.452 528.461 627.468C527.583 627.507 526.756 627.621 525.979 627.811C525.213 627.993 524.577 628.314 524.072 628.774C523.577 629.226 523.293 629.877 523.22 630.726C523.121 631.886 523.475 632.8 524.283 633.468C525.101 634.128 526.175 634.514 527.505 634.628ZM543.34 638.495L545.203 616.756L554.091 617.518C556.431 617.718 558.244 618.406 559.531 619.581C560.818 620.755 561.387 622.211 561.238 623.947C561.125 625.268 560.646 626.258 559.801 626.917C558.956 627.567 557.91 627.967 556.661 628.117C557.453 628.299 558.208 628.648 558.924 629.166C559.649 629.684 560.228 630.361 560.66 631.197C561.093 632.023 561.261 633.006 561.163 634.148C561.067 635.261 560.699 636.233 560.058 637.062C559.416 637.89 558.545 638.514 557.445 638.933C556.345 639.352 555.059 639.499 553.587 639.373L543.34 638.495ZM546.772 635.709L553.849 636.316C555 636.414 555.924 636.218 556.622 635.726C557.32 635.235 557.709 634.517 557.79 633.574C557.887 632.451 557.637 631.541 557.041 630.844C556.445 630.137 555.572 629.734 554.421 629.636L547.345 629.029L546.772 635.709ZM547.592 626.142L553.31 626.632C554.206 626.709 554.986 626.652 555.648 626.462C556.312 626.262 556.833 625.945 557.212 625.512C557.602 625.07 557.824 624.529 557.879 623.887C557.957 622.972 557.637 622.222 556.917 621.638C556.198 621.044 555.169 620.689 553.829 620.575L548.111 620.085L547.592 626.142ZM575.01 641.665C573.047 641.496 571.365 640.882 569.964 639.821C568.572 638.761 567.533 637.355 566.847 635.605C566.17 633.855 565.928 631.857 566.12 629.612C566.314 627.347 566.894 625.406 567.859 623.787C568.834 622.169 570.098 620.957 571.65 620.149C573.211 619.341 574.973 619.022 576.936 619.19C578.898 619.358 580.575 619.972 581.967 621.033C583.368 622.094 584.407 623.504 585.083 625.263C585.769 627.023 586.015 629.035 585.82 631.3C585.628 633.545 585.045 635.472 584.071 637.081C583.106 638.69 581.843 639.898 580.281 640.705C578.729 641.513 576.972 641.833 575.01 641.665ZM575.267 638.664C576.758 638.792 578.017 638.515 579.045 637.833C580.073 637.151 580.871 636.208 581.44 635.002C582.009 633.796 582.356 632.467 582.48 631.014C582.605 629.561 582.49 628.187 582.135 626.892C581.78 625.598 581.155 624.522 580.259 623.666C579.363 622.81 578.169 622.318 576.678 622.191C575.188 622.063 573.928 622.344 572.899 623.036C571.871 623.727 571.071 624.68 570.502 625.895C569.932 627.111 569.584 628.445 569.46 629.898C569.335 631.351 569.451 632.72 569.807 634.005C570.162 635.29 570.788 636.356 571.685 637.203C572.582 638.049 573.776 638.536 575.267 638.664ZM590.495 642.535L592.358 620.797L601.246 621.558C603.586 621.759 605.399 622.447 606.686 623.621C607.973 624.796 608.543 626.252 608.394 627.988C608.281 629.309 607.801 630.299 606.956 630.958C606.111 631.608 605.065 632.008 603.817 632.158C604.609 632.339 605.363 632.689 606.079 633.207C606.804 633.725 607.383 634.402 607.815 635.237C608.248 636.063 608.416 637.047 608.318 638.189C608.223 639.302 607.854 640.273 607.213 641.102C606.572 641.931 605.701 642.555 604.6 642.974C603.5 643.393 602.214 643.54 600.742 643.413L590.495 642.535ZM593.928 639.75L601.004 640.356C602.155 640.455 603.08 640.259 603.777 639.767C604.475 639.276 604.865 638.558 604.946 637.615C605.042 636.492 604.792 635.582 604.196 634.885C603.601 634.178 602.727 633.775 601.576 633.676L594.5 633.07L593.928 639.75ZM594.747 630.183L600.465 630.673C601.361 630.75 602.141 630.693 602.804 630.503C603.467 630.303 603.988 629.986 604.368 629.553C604.757 629.111 604.979 628.569 605.034 627.928C605.113 627.013 604.792 626.263 604.072 625.678C603.353 625.085 602.324 624.73 600.984 624.615L595.266 624.125L594.747 630.183ZM628.984 633.345L628.717 636.458L616.716 635.43L616.982 632.316L628.984 633.345ZM618.575 623.043L616.713 644.782L613.373 644.496L615.235 622.757L618.575 623.043ZM632.332 624.222L630.469 645.961L627.129 645.675L628.992 623.936L632.332 624.222ZM643.42 647.584C642.043 647.466 640.815 647.099 639.737 646.484C638.659 645.859 637.833 645.024 637.257 643.976C636.682 642.92 636.455 641.684 636.577 640.268C636.683 639.023 637.015 638.034 637.572 637.303C638.13 636.562 638.838 636.004 639.697 635.631C640.556 635.258 641.49 635.006 642.499 634.874C643.519 634.733 644.539 634.64 645.56 634.594C646.895 634.537 647.977 634.502 648.805 634.487C649.644 634.464 650.261 634.36 650.657 634.175C651.062 633.992 651.288 633.631 651.334 633.093L651.344 632.98C651.464 631.583 651.174 630.466 650.476 629.626C649.788 628.788 648.675 628.303 647.137 628.171C645.542 628.035 644.262 628.276 643.297 628.897C642.331 629.518 641.63 630.208 641.194 630.969L638.121 629.566C638.8 628.293 639.643 627.329 640.65 626.674C641.667 626.011 642.749 625.581 643.897 625.384C645.055 625.179 646.181 625.124 647.276 625.218C647.974 625.278 648.769 625.431 649.66 625.679C650.561 625.917 651.415 626.328 652.22 626.91C653.035 627.493 653.682 628.323 654.16 629.4C654.638 630.477 654.803 631.879 654.655 633.606L653.427 647.928L650.087 647.642L650.34 644.698L650.17 644.684C649.903 645.136 649.482 645.608 648.908 646.101C648.333 646.593 647.591 646.991 646.681 647.293C645.772 647.595 644.685 647.692 643.42 647.584ZM644.187 644.627C645.508 644.74 646.643 644.576 647.594 644.135C648.553 643.694 649.299 643.084 649.832 642.302C650.374 641.522 650.684 640.679 650.762 639.773L651.024 636.716C650.868 636.874 650.543 637.003 650.05 637.103C649.567 637.195 649.009 637.266 648.378 637.316C647.756 637.358 647.15 637.392 646.558 637.417C645.977 637.434 645.505 637.45 645.143 637.467C644.265 637.505 643.438 637.62 642.661 637.81C641.895 637.991 641.259 638.312 640.754 638.773C640.259 639.225 639.975 639.875 639.902 640.724C639.803 641.885 640.157 642.799 640.965 643.467C641.782 644.126 642.857 644.513 644.187 644.627Z" fill="black"/>
<path d="M539 389.403C539 477.768 467.366 549.403 379 549.403C290.634 549.403 219 477.768 219 389.403C219 301.037 290.634 229.403 379 229.403C467.366 229.403 539 301.037 539 389.403Z" fill="#7AD6FF"/>
<path d="M410.715 339.691C403.307 374.89 403.307 393.774 403.307 393.774C403.307 393.774 414.972 392.506 416.715 402.883C418.123 412.124 410.715 415.127 401.497 417.229C399.486 413.159 396.972 408.087 394.291 402.883C387.819 389.676 384.569 375.136 384.804 360.444V301.957C385.468 293.833 382.986 285.764 377.866 279.403C372.746 285.764 370.263 293.833 370.927 301.957V360.444C371.162 375.136 367.913 389.676 361.441 402.883C358.76 408.087 356.246 413.159 354.235 417.229C345.017 415.127 337.475 412.124 339.017 402.883C340.625 392.506 352.424 393.774 352.424 393.774C352.424 393.774 352.425 374.89 345.05 339.691C337.676 304.492 312 294.416 312 294.416V454.13H349.81C350.668 462.215 353.689 469.923 358.559 476.45C366.637 487.127 378 490.463 378 497.403C378 490.463 389.363 487.127 397.441 476.45C402.311 469.923 405.332 462.215 406.19 454.13H444V294.416C444 294.416 417.989 304.492 410.715 339.691ZM323.028 318.639C328.933 324.451 333.188 331.714 335.363 339.691C338.212 351.936 341.028 384.032 341.028 384.032C341.028 384.032 330.604 390.705 330.604 398.145H323.028V318.639ZM348 441.551H323.028V409.489H329.732C331.213 413.834 333.844 417.702 337.348 420.685C340.852 423.668 345.099 425.655 349.642 426.438C348.691 431.424 348.142 436.478 348 441.551ZM372.402 475.816C365.85 470.251 361.462 462.578 360 454.13H372.402V475.816ZM372.402 441.551H358.525C358.203 436.992 358.961 432.421 360.738 428.206C374.179 430.808 372.302 441.551 372.302 441.551H372.402ZM377.765 429.607C377.765 424.87 371.832 421.733 364.022 419.598C369.702 409.546 374.319 398.935 377.799 387.935C381.279 398.935 385.896 409.546 391.575 419.598C383.765 421.8 377.832 424.936 377.832 429.607V430.141L377.765 429.607ZM383.095 475.816V454.13H395.497C394.008 462.592 389.584 470.267 382.995 475.816H383.095ZM397.073 441.551H383.195C383.195 441.551 381.318 430.808 394.86 428.206C396.603 432.429 397.326 437 396.972 441.551H397.073ZM432.469 441.551H407.497C407.378 436.48 406.851 431.426 405.922 426.438C410.465 425.655 414.712 423.668 418.216 420.685C421.72 417.702 424.351 413.834 425.832 409.489H432.536L432.469 441.551ZM432.469 398.178H424.693C424.693 390.638 414.268 384.065 414.268 384.065C414.268 384.065 417.084 351.969 419.933 339.725C422.108 331.747 426.364 324.484 432.268 318.672L432.469 398.178Z" fill="white"/>
<path d="M178.155 524.679C180.805 544.384 166.979 562.506 147.274 565.155C127.569 567.805 109.447 553.979 106.797 534.274C104.148 514.569 117.974 496.447 137.679 493.797C157.384 491.148 175.506 504.974 178.155 524.679Z" fill="#7AD6FF" fill-opacity="0.55"/>
<path d="M144.463 521.743C144.437 521.544 144.477 521.346 144.585 521.146C144.693 520.947 144.825 520.803 144.981 520.714C145.923 520.218 146.901 519.8 147.915 519.462C148.929 519.124 149.998 518.879 151.121 518.728C151.848 518.631 152.564 518.577 153.269 518.566C153.974 518.555 154.667 518.588 155.35 518.664C155.557 518.704 155.756 518.803 155.945 518.963C156.135 519.122 156.245 519.318 156.276 519.549C156.325 519.912 156.239 520.21 156.018 520.441C155.797 520.673 155.498 520.763 155.121 520.713C154.538 520.623 153.934 520.578 153.312 520.578C152.69 520.578 152.048 520.622 151.388 520.711C150.43 520.839 149.517 521.055 148.649 521.356C147.782 521.658 146.943 522.048 146.133 522.527C145.693 522.754 145.32 522.796 145.015 522.652C144.709 522.508 144.526 522.205 144.463 521.743ZM145.929 532.644C145.903 532.446 145.942 532.239 146.048 532.023C146.153 531.807 146.284 531.655 146.44 531.567C147.383 531.07 148.362 530.661 149.378 530.339C150.394 530.018 151.464 529.781 152.587 529.63C153.314 529.533 154.03 529.478 154.735 529.468C155.439 529.457 156.133 529.49 156.816 529.566C157.023 529.606 157.222 529.705 157.411 529.865C157.601 530.024 157.711 530.219 157.742 530.451C157.791 530.814 157.705 531.112 157.484 531.343C157.263 531.575 156.964 531.665 156.587 531.615C156.003 531.525 155.4 531.48 154.778 531.48C154.156 531.479 153.514 531.524 152.854 531.613C151.896 531.741 150.982 531.948 150.112 532.233C149.242 532.519 148.402 532.901 147.592 533.379C147.152 533.607 146.78 533.657 146.477 533.529C146.174 533.402 145.992 533.107 145.929 532.644ZM145.196 527.194C145.17 526.995 145.21 526.796 145.318 526.597C145.426 526.398 145.558 526.254 145.714 526.165C146.656 525.669 147.634 525.251 148.648 524.913C149.662 524.575 150.731 524.33 151.854 524.179C152.581 524.082 153.297 524.027 154.002 524.017C154.706 524.006 155.4 524.039 156.083 524.115C156.29 524.155 156.489 524.254 156.678 524.414C156.868 524.573 156.978 524.768 157.009 525C157.058 525.363 156.972 525.661 156.751 525.892C156.53 526.124 156.231 526.214 155.854 526.164C155.27 526.074 154.667 526.029 154.045 526.029C153.423 526.029 152.781 526.073 152.121 526.162C151.163 526.29 150.25 526.506 149.382 526.807C148.515 527.109 147.676 527.499 146.866 527.978C146.426 528.205 146.053 528.247 145.748 528.103C145.442 527.959 145.259 527.656 145.196 527.194ZM131.055 539.084C132.839 538.844 134.593 538.819 136.317 539.007C138.04 539.196 139.767 539.594 141.497 540.203L138.652 519.043C137.032 518.252 135.318 517.7 133.511 517.388C131.703 517.076 129.907 517.04 128.123 517.28C126.868 517.449 125.658 517.772 124.495 518.248C123.331 518.723 122.169 519.275 121.009 519.902L123.901 541.408C124.863 540.808 125.982 540.313 127.258 539.923C128.534 539.532 129.799 539.253 131.055 539.084ZM144.47 539.803C146.011 538.755 147.547 537.918 149.077 537.291C150.607 536.665 152.264 536.232 154.048 535.992C155.303 535.824 156.613 535.748 157.978 535.767C159.343 535.785 160.526 535.895 161.529 536.096L158.67 514.838C157.471 514.427 156.226 514.174 154.936 514.079C153.645 513.983 152.372 514.02 151.116 514.189C149.332 514.429 147.643 514.933 146.048 515.703C144.453 516.472 142.978 517.452 141.625 518.643L144.47 539.803ZM143.51 543.917C143.246 543.953 143.003 543.96 142.782 543.94C142.56 543.919 142.358 543.854 142.175 543.744C140.493 542.995 138.742 542.473 136.92 542.18C135.098 541.887 133.278 541.863 131.461 542.107C130.239 542.271 129.07 542.58 127.953 543.033C126.837 543.485 125.73 544.004 124.631 544.589C123.92 545.055 123.179 545.104 122.406 544.737C121.634 544.37 121.19 543.757 121.074 542.898L117.989 519.955C117.922 519.459 117.977 518.989 118.153 518.545C118.328 518.101 118.632 517.733 119.063 517.439C120.362 516.592 121.742 515.91 123.203 515.394C124.664 514.878 126.171 514.516 127.723 514.307C129.805 514.027 131.866 514.036 133.907 514.333C135.948 514.631 137.905 515.242 139.779 516.167C141.308 514.784 143.001 513.682 144.858 512.861C146.715 512.039 148.668 511.491 150.716 511.215C152.269 511.007 153.81 510.959 155.339 511.073C156.867 511.187 158.37 511.481 159.846 511.955C160.34 512.124 160.738 512.399 161.042 512.778C161.345 513.158 161.53 513.596 161.597 514.091L164.682 537.035C164.806 537.96 164.529 538.712 163.85 539.291C163.171 539.87 162.437 539.977 161.648 539.612C160.463 539.3 159.273 539.082 158.079 538.957C156.885 538.831 155.677 538.851 154.454 539.015C152.67 539.255 150.955 539.755 149.308 540.514C147.661 541.274 146.143 542.235 144.752 543.397C144.604 543.552 144.427 543.668 144.219 543.746C144.011 543.825 143.774 543.882 143.51 543.917Z" fill="black"/>
<path d="M173.5 513L256 472M339.5 245.5L309 162M465.5 524L577.5 594" stroke="#7AD6FF" stroke-dasharray="15 15"/>
</g>
<defs>
<clipPath id="clip0_457_29">
<rect width="758" height="735" fill="white"/>
</clipPath>
</defs>
</svg>
