<svg width="386" height="735" viewBox="0 0 386 735" fill="none" xmlns="http://www.w3.org/2000/svg">
<g clip-path="url(#clip0_457_30)">
<rect width="386" height="735" fill="white"/>
<rect width="386" height="735" fill="#F6FDFF"/>
<rect x="106.009" y="174.082" width="213.634" height="46.0006" rx="23.0003" transform="rotate(4.89779 106.009 174.082)" stroke="#7AD6FF" stroke-width="2"/>
<path d="M148.915 210.619L150.902 187.432L164.896 188.631L164.683 191.122L153.496 190.163L152.876 197.409L158.763 197.914C160.424 198.056 161.801 198.448 162.894 199.089C163.994 199.731 164.797 200.571 165.301 201.61C165.812 202.65 166.011 203.842 165.895 205.186C165.78 206.529 165.381 207.689 164.696 208.664C164.02 209.64 163.083 210.37 161.886 210.853C160.696 211.336 159.271 211.507 157.61 211.364L148.915 210.619ZM151.932 208.414L157.82 208.919C158.877 209.009 159.789 208.875 160.558 208.515C161.334 208.148 161.94 207.645 162.375 207.005C162.818 206.359 163.072 205.658 163.137 204.904C163.232 203.794 162.887 202.803 162.103 201.929C161.319 201.049 160.135 200.54 158.55 200.405L152.662 199.9L151.932 208.414ZM175.15 213.278C174.048 213.184 173.066 212.89 172.203 212.398C171.341 211.899 170.68 211.23 170.22 210.392C169.76 209.547 169.578 208.558 169.675 207.426C169.761 206.429 170.026 205.638 170.472 205.053C170.918 204.46 171.485 204.015 172.172 203.716C172.859 203.418 173.606 203.216 174.413 203.11C175.229 202.997 176.045 202.923 176.862 202.886C177.93 202.841 178.796 202.812 179.458 202.801C180.129 202.782 180.623 202.699 180.94 202.551C181.264 202.404 181.444 202.116 181.481 201.685L181.489 201.595C181.585 200.478 181.354 199.583 180.795 198.912C180.244 198.241 179.354 197.853 178.123 197.748C176.848 197.639 175.824 197.832 175.051 198.329C174.279 198.825 173.718 199.378 173.37 199.987L170.911 198.863C171.454 197.846 172.129 197.075 172.934 196.55C173.747 196.02 174.613 195.676 175.532 195.518C176.458 195.355 177.359 195.31 178.235 195.385C178.793 195.433 179.429 195.556 180.142 195.754C180.863 195.945 181.546 196.273 182.19 196.739C182.842 197.206 183.359 197.87 183.742 198.731C184.124 199.593 184.256 200.714 184.138 202.095L183.156 213.553L180.484 213.325L180.686 210.97L180.55 210.958C180.336 211.32 180 211.698 179.54 212.092C179.081 212.486 178.487 212.804 177.759 213.045C177.031 213.287 176.162 213.365 175.15 213.278ZM175.764 210.913C176.82 211.003 177.729 210.872 178.489 210.519C179.257 210.167 179.854 209.678 180.28 209.053C180.713 208.429 180.961 207.754 181.023 207.029L181.233 204.584C181.108 204.71 180.848 204.813 180.454 204.893C180.067 204.967 179.621 205.024 179.116 205.064C178.619 205.097 178.134 205.124 177.661 205.145C177.196 205.158 176.818 205.171 176.528 205.184C175.826 205.215 175.164 205.307 174.543 205.459C173.93 205.604 173.421 205.861 173.017 206.229C172.621 206.591 172.394 207.111 172.336 207.79C172.256 208.719 172.54 209.45 173.186 209.985C173.84 210.512 174.699 210.821 175.764 210.913ZM188.531 214.014L190.021 196.623L197.132 197.233C199.004 197.393 200.454 197.943 201.484 198.883C202.514 199.823 202.969 200.987 202.85 202.376C202.759 203.433 202.376 204.225 201.7 204.752C201.024 205.272 200.187 205.592 199.188 205.712C199.822 205.857 200.425 206.137 200.998 206.551C201.578 206.966 202.041 207.507 202.387 208.176C202.733 208.837 202.867 209.624 202.789 210.537C202.713 211.428 202.418 212.205 201.905 212.868C201.392 213.531 200.695 214.03 199.815 214.365C198.935 214.7 197.906 214.817 196.728 214.717L188.531 214.014ZM191.277 211.786L196.938 212.271C197.859 212.35 198.598 212.193 199.157 211.8C199.715 211.406 200.027 210.832 200.091 210.078C200.168 209.179 199.968 208.451 199.492 207.893C199.015 207.328 198.317 207.006 197.396 206.927L191.735 206.442L191.277 211.786ZM191.933 204.132L196.507 204.524C197.224 204.585 197.848 204.54 198.378 204.388C198.908 204.228 199.325 203.975 199.629 203.628C199.941 203.275 200.118 202.841 200.162 202.328C200.225 201.596 199.969 200.996 199.393 200.529C198.818 200.053 197.994 199.77 196.922 199.678L192.348 199.286L191.933 204.132ZM213.966 216.559C212.396 216.424 211.051 215.932 209.93 215.084C208.816 214.235 207.985 213.111 207.436 211.711C206.895 210.311 206.701 208.713 206.855 206.916C207.01 205.105 207.474 203.552 208.246 202.257C209.026 200.962 210.037 199.992 211.279 199.346C212.528 198.7 213.937 198.445 215.507 198.579C217.077 198.714 218.419 199.205 219.532 200.053C220.653 200.902 221.484 202.03 222.025 203.437C222.574 204.845 222.77 206.455 222.615 208.267C222.461 210.063 221.995 211.605 221.215 212.891C220.443 214.179 219.433 215.145 218.184 215.791C216.942 216.437 215.536 216.693 213.966 216.559ZM214.172 214.158C215.365 214.261 216.372 214.039 217.195 213.494C218.017 212.948 218.656 212.193 219.111 211.228C219.566 210.264 219.843 209.2 219.943 208.038C220.043 206.875 219.951 205.776 219.667 204.741C219.383 203.705 218.883 202.845 218.166 202.16C217.449 201.475 216.494 201.082 215.301 200.979C214.109 200.877 213.101 201.103 212.278 201.656C211.455 202.209 210.816 202.971 210.36 203.943C209.904 204.916 209.626 205.983 209.527 207.145C209.427 208.308 209.52 209.403 209.804 210.431C210.088 211.459 210.589 212.312 211.307 212.989C212.025 213.666 212.98 214.056 214.172 214.158ZM226.455 217.264L227.945 199.873L235.055 200.482C236.927 200.643 238.378 201.193 239.408 202.133C240.437 203.072 240.892 204.237 240.773 205.626C240.683 206.682 240.299 207.475 239.623 208.002C238.947 208.522 238.11 208.842 237.112 208.962C237.745 209.107 238.349 209.387 238.922 209.801C239.502 210.216 239.965 210.757 240.311 211.425C240.657 212.086 240.791 212.873 240.713 213.787C240.636 214.677 240.342 215.454 239.829 216.117C239.316 216.781 238.619 217.28 237.739 217.615C236.858 217.95 235.829 218.067 234.652 217.966L226.455 217.264ZM229.2 215.036L234.862 215.521C235.782 215.6 236.522 215.442 237.08 215.049C237.639 214.656 237.95 214.082 238.015 213.327C238.092 212.429 237.892 211.701 237.415 211.143C236.939 210.578 236.24 210.256 235.319 210.177L229.658 209.692L229.2 215.036ZM229.856 207.382L234.43 207.774C235.148 207.835 235.771 207.79 236.301 207.638C236.832 207.478 237.249 207.225 237.552 206.878C237.864 206.524 238.042 206.091 238.086 205.578C238.149 204.846 237.892 204.246 237.316 203.778C236.741 203.303 235.918 203.02 234.846 202.928L230.272 202.536L229.856 207.382ZM257.345 209.92L257.132 212.411L247.53 211.588L247.744 209.097L257.345 209.92ZM249.018 201.679L247.528 219.07L244.856 218.841L246.346 201.45L249.018 201.679ZM260.023 202.622L258.533 220.013L255.861 219.784L257.351 202.393L260.023 202.622ZM268.994 221.32C267.892 221.225 266.91 220.932 266.047 220.44C265.185 219.94 264.524 219.271 264.063 218.434C263.603 217.588 263.422 216.599 263.519 215.467C263.604 214.471 263.87 213.68 264.315 213.095C264.762 212.502 265.328 212.056 266.015 211.758C266.702 211.459 267.45 211.257 268.257 211.151C269.073 211.039 269.889 210.964 270.706 210.928C271.774 210.883 272.639 210.854 273.302 210.842C273.973 210.824 274.466 210.741 274.783 210.593C275.107 210.446 275.288 210.157 275.325 209.727L275.333 209.636C275.428 208.519 275.197 207.625 274.639 206.954C274.088 206.283 273.197 205.895 271.967 205.79C270.691 205.68 269.667 205.874 268.895 206.37C268.122 206.867 267.562 207.419 267.213 208.028L264.755 206.905C265.298 205.887 265.972 205.116 266.778 204.592C267.591 204.061 268.457 203.717 269.375 203.56C270.302 203.396 271.203 203.352 272.078 203.427C272.637 203.475 273.273 203.598 273.986 203.795C274.707 203.987 275.39 204.315 276.034 204.781C276.686 205.247 277.203 205.911 277.585 206.773C277.968 207.634 278.1 208.756 277.981 210.137L277 221.595L274.328 221.366L274.529 219.011L274.394 218.999C274.18 219.361 273.843 219.739 273.384 220.133C272.924 220.527 272.331 220.845 271.603 221.087C270.875 221.329 270.005 221.406 268.994 221.32ZM269.607 218.954C270.664 219.045 271.572 218.914 272.333 218.561C273.1 218.208 273.697 217.719 274.123 217.094C274.557 216.47 274.805 215.796 274.867 215.071L275.077 212.625C274.952 212.752 274.692 212.855 274.297 212.935C273.911 213.008 273.465 213.065 272.96 213.106C272.463 213.139 271.977 213.166 271.504 213.186C271.039 213.199 270.662 213.213 270.372 213.226C269.67 213.257 269.008 213.349 268.387 213.501C267.773 213.646 267.265 213.903 266.861 214.271C266.465 214.632 266.238 215.153 266.179 215.832C266.1 216.76 266.383 217.492 267.029 218.026C267.684 218.554 268.543 218.863 269.607 218.954Z" fill="black"/>
<rect x="47.9384" y="550.374" width="251.684" height="45.4105" rx="22.7052" transform="rotate(-6.82482 47.9384 550.374)" stroke="#7AD6FF" stroke-width="2"/>
<path d="M80.5019 580.632L77.7363 557.524L80.5345 557.189L81.766 567.479L94.0872 566.004L92.8556 555.714L95.6539 555.379L98.4195 578.487L95.6212 578.822L94.3843 568.487L82.0631 569.961L83.3001 580.297L80.5019 580.632ZM104.157 577.8L102.083 560.47L104.746 560.151L106.82 577.482L104.157 577.8ZM103.091 557.419C102.572 557.481 102.103 557.358 101.685 557.049C101.274 556.74 101.039 556.337 100.979 555.841C100.92 555.344 101.053 554.897 101.38 554.5C101.713 554.101 102.14 553.871 102.659 553.809C103.178 553.746 103.643 553.87 104.054 554.179C104.472 554.488 104.711 554.89 104.77 555.387C104.83 555.883 104.693 556.331 104.359 556.729C104.033 557.127 103.61 557.357 103.091 557.419ZM119.277 576.357C117.652 576.552 116.207 576.335 114.942 575.709C113.677 575.082 112.648 574.133 111.855 572.862C111.062 571.591 110.562 570.091 110.355 568.361C110.144 566.601 110.282 565.009 110.767 563.585C111.26 562.152 112.043 560.987 113.118 560.087C114.2 559.18 115.523 558.632 117.088 558.445C118.306 558.299 119.431 558.393 120.463 558.728C121.495 559.062 122.372 559.598 123.094 560.336C123.815 561.073 124.316 561.975 124.596 563.04L121.933 563.358C121.636 562.593 121.1 561.947 120.328 561.422C119.562 560.888 118.593 560.691 117.419 560.832C116.381 560.956 115.503 561.335 114.786 561.971C114.075 562.598 113.56 563.426 113.241 564.456C112.928 565.478 112.85 566.643 113.007 567.952C113.167 569.291 113.517 570.431 114.057 571.374C114.605 572.316 115.299 573.015 116.139 573.471C116.987 573.926 117.938 574.091 118.991 573.965C119.683 573.882 120.297 573.687 120.832 573.379C121.367 573.07 121.804 572.667 122.141 572.169C122.478 571.671 122.691 571.096 122.781 570.444L125.444 570.126C125.416 571.167 125.154 572.133 124.658 573.024C124.168 573.906 123.467 574.646 122.554 575.244C121.648 575.833 120.556 576.204 119.277 576.357ZM137.748 574.147C136.078 574.346 134.593 574.15 133.294 573.558C132.001 572.957 130.948 572.03 130.134 570.777C129.327 569.516 128.817 567.998 128.605 566.222C128.392 564.447 128.529 562.844 129.013 561.412C129.505 559.973 130.288 558.803 131.363 557.904C132.445 556.996 133.768 556.449 135.332 556.261C136.235 556.153 137.144 556.197 138.061 556.393C138.977 556.588 139.836 556.981 140.639 557.572C141.442 558.155 142.123 558.974 142.684 560.028C143.246 561.082 143.623 562.418 143.816 564.036L143.951 565.164L130.592 566.763L130.317 564.461L140.968 563.186C140.851 562.208 140.551 561.359 140.068 560.639C139.593 559.917 138.971 559.378 138.203 559.019C137.443 558.66 136.582 558.538 135.619 558.653C134.558 558.78 133.672 559.153 132.96 559.773C132.255 560.384 131.746 561.131 131.432 562.016C131.118 562.9 131.018 563.82 131.133 564.775L131.316 566.31C131.473 567.619 131.831 568.701 132.392 569.557C132.958 570.405 133.676 571.017 134.546 571.394C135.414 571.763 136.386 571.883 137.461 571.754C138.161 571.671 138.781 571.497 139.322 571.234C139.869 570.963 140.326 570.603 140.692 570.155C141.057 569.699 141.316 569.157 141.47 568.528L144.129 568.942C143.963 569.847 143.599 570.669 143.039 571.407C142.478 572.138 141.75 572.744 140.853 573.225C139.956 573.699 138.921 574.006 137.748 574.147ZM159.844 561.11L160.141 563.592L150.573 564.738L150.276 562.255L159.844 561.11ZM150.016 554.733L152.09 572.064L149.428 572.382L147.353 555.052L150.016 554.733ZM160.983 553.42L163.058 570.751L160.395 571.07L158.321 553.739L160.983 553.42ZM168.417 570.11L166.343 552.779L169.006 552.46L171.08 569.791L168.417 570.11ZM167.351 549.728C166.832 549.79 166.363 549.667 165.945 549.359C165.534 549.049 165.299 548.646 165.24 548.15C165.18 547.653 165.314 547.206 165.64 546.809C165.974 546.41 166.4 546.18 166.919 546.118C167.438 546.056 167.903 546.179 168.314 546.489C168.732 546.797 168.971 547.2 169.031 547.696C169.09 548.193 168.953 548.64 168.619 549.039C168.293 549.436 167.87 549.666 167.351 549.728ZM173.683 554.418L173.386 551.936L187.468 550.251L187.765 552.733L182.078 553.413L183.855 568.262L181.192 568.581L179.415 553.732L173.683 554.418ZM204.339 555.785L204.636 558.267L195.068 559.412L194.771 556.93L204.339 555.785ZM194.511 549.408L196.585 566.738L193.923 567.057L191.848 549.726L194.511 549.408ZM205.478 548.095L207.553 565.426L204.89 565.745L202.816 548.414L205.478 548.095ZM215.105 560.539L221.85 546.136L224.919 545.768L226.993 563.099L224.331 563.418L222.726 550.014L216.026 564.412L212.912 564.784L210.838 547.454L213.501 547.135L215.105 560.539ZM243.923 543.494L245.7 558.342L248.137 558.051L249.104 566.13L246.441 566.448L245.771 560.852L232.367 562.456L230.293 545.125L232.956 544.806L234.733 559.655L243.037 558.661L241.26 543.813L243.923 543.494ZM263.147 558.772L261.365 543.878L256.761 544.429C255.723 544.554 254.936 544.892 254.399 545.445C253.863 545.997 253.645 546.695 253.746 547.537C253.845 548.365 254.189 548.983 254.78 549.393C255.379 549.802 256.148 549.951 257.088 549.838L262.685 549.168L262.982 551.651L257.385 552.32C256.212 552.461 255.175 552.375 254.276 552.063C253.376 551.751 252.651 551.239 252.101 550.526C251.549 549.807 251.21 548.916 251.083 547.856C250.955 546.788 251.086 545.841 251.475 545.016C251.865 544.191 252.483 543.519 253.328 542.998C254.181 542.476 255.228 542.141 256.47 541.992L263.601 541.139L265.675 558.47L263.147 558.772ZM251.593 560.155L255.481 550.946L258.37 550.6L254.482 559.809L251.593 560.155Z" fill="black"/>
<path d="M342 378C342 460.29 275.29 527 193 527C110.71 527 44 460.29 44 378C44 295.71 110.71 229 193 229C275.29 229 342 295.71 342 378Z" fill="#7AD6FF"/>
<path d="M222.535 331.706C215.636 364.485 215.636 382.071 215.636 382.071C215.636 382.071 226.499 380.89 228.122 390.553C229.433 399.16 222.535 401.956 213.95 403.913C212.077 400.123 209.737 395.4 207.239 390.553C201.213 378.254 198.186 364.714 198.405 351.032V296.566C199.024 289.001 196.712 281.486 191.944 275.562C187.176 281.486 184.864 289.001 185.482 296.566V351.032C185.701 364.714 182.675 378.254 176.648 390.553C174.151 395.4 171.81 400.123 169.937 403.913C161.353 401.956 154.33 399.16 155.765 390.553C157.264 380.89 168.251 382.071 168.251 382.071C168.251 382.071 168.252 364.485 161.384 331.706C154.517 298.927 130.606 289.544 130.606 289.544V438.277H165.817C166.616 445.806 169.429 452.985 173.964 459.063C181.487 469.005 192.069 472.112 192.069 478.575C192.069 472.112 202.651 469.005 210.173 459.063C214.708 452.985 217.522 445.806 218.321 438.277H253.531V289.544C253.531 289.544 229.308 298.927 222.535 331.706ZM140.876 312.101C146.375 317.514 150.338 324.277 152.363 331.706C155.016 343.109 157.639 372.999 157.639 372.999C157.639 372.999 147.931 379.213 147.931 386.141H140.876V312.101ZM164.131 426.564H140.876V396.705H147.119C148.499 400.752 150.949 404.354 154.212 407.132C157.475 409.909 161.43 411.76 165.661 412.489C164.775 417.132 164.263 421.839 164.131 426.564ZM186.856 458.473C180.754 453.29 176.668 446.145 175.306 438.277H186.856V458.473ZM186.856 426.564H173.933C173.633 422.317 174.338 418.06 175.993 414.135C188.51 416.559 186.762 426.564 186.762 426.564H186.856ZM191.85 415.441C191.85 411.029 186.325 408.108 179.052 406.119C184.341 396.759 188.64 386.877 191.881 376.634C195.123 386.877 199.422 396.759 204.711 406.119C197.438 408.17 191.913 411.091 191.913 415.441V415.938L191.85 415.441ZM196.813 458.473V438.277H208.363C206.977 446.158 202.856 453.305 196.72 458.473H196.813ZM209.83 426.564H196.907C196.907 426.564 195.159 416.559 207.77 414.135C209.393 418.068 210.066 422.325 209.736 426.564H209.83ZM242.793 426.564H219.538C219.427 421.84 218.936 417.134 218.071 412.489C222.302 411.76 226.257 409.909 229.52 407.132C232.783 404.354 235.233 400.752 236.613 396.705H242.856L242.793 426.564ZM242.793 386.172H235.551C235.551 379.15 225.843 373.03 225.843 373.03C225.843 373.03 228.465 343.14 231.119 331.737C233.144 324.309 237.107 317.545 242.606 312.132L242.793 386.172Z" fill="white"/>
</g>
<defs>
<clipPath id="clip0_457_30">
<rect width="386" height="735" fill="white"/>
</clipPath>
</defs>
</svg>
