<svg width="1161" height="735" viewBox="0 0 1161 735" fill="none" xmlns="http://www.w3.org/2000/svg">
<g clip-path="url(#clip0_457_28)">
<rect width="1161" height="735" fill="white"/>
<rect width="1161" height="735" fill="#F6FDFF"/>
<path d="M318.662 283.093L317.059 283.313L317.973 284.648L323.484 292.702L295.24 286.373L295.064 286.333L294.885 286.358L132.905 308.603C115.67 310.97 99.7795 298.917 97.4125 281.682C95.0456 264.447 107.099 248.556 124.334 246.189L349.223 215.304C366.458 212.937 382.349 224.99 384.716 242.226C387.083 259.461 375.03 275.351 357.795 277.718L318.662 283.093Z" stroke="#7AD6FF" stroke-width="2"/>
<rect x="754.273" y="471.484" width="290" height="63" rx="31.5" transform="rotate(4.89779 754.273 471.484)" stroke="#7AD6FF" stroke-width="2"/>
<rect x="607.814" y="111.093" width="376" height="63" rx="31.5" transform="rotate(5.63548 607.814 111.093)" stroke="#7AD6FF" stroke-width="2"/>
<path d="M641.397 160.631L644.253 131.68L647.759 132.026L646.487 144.918L661.923 146.441L663.195 133.549L666.701 133.895L663.844 162.846L660.339 162.5L661.616 149.551L646.18 148.028L644.902 160.976L641.397 160.631ZM670.908 163.543L673.051 141.83L676.387 142.159L674.244 163.872L670.908 163.543ZM675.104 138.378C674.454 138.314 673.915 138.038 673.487 137.548C673.069 137.06 672.891 136.504 672.952 135.882C673.014 135.26 673.297 134.751 673.803 134.353C674.318 133.957 674.9 133.791 675.55 133.855C676.201 133.919 676.735 134.195 677.153 134.684C677.58 135.173 677.763 135.729 677.702 136.351C677.641 136.973 677.353 137.482 676.838 137.879C676.332 138.276 675.754 138.443 675.104 138.378ZM689.628 165.847C687.593 165.646 685.887 164.992 684.512 163.886C683.137 162.78 682.136 161.344 681.511 159.579C680.886 157.814 680.681 155.848 680.894 153.68C681.112 151.475 681.709 149.569 682.686 147.962C683.673 146.347 684.944 145.135 686.499 144.327C688.064 143.511 689.827 143.2 691.787 143.393C693.313 143.544 694.661 143.962 695.831 144.649C697 145.335 697.926 146.226 698.607 147.321C699.289 148.416 699.657 149.651 699.712 151.027L696.376 150.697C696.219 149.683 695.74 148.75 694.939 147.901C694.148 147.042 693.018 146.541 691.548 146.396C690.247 146.267 689.073 146.494 688.026 147.076C686.99 147.649 686.138 148.521 685.47 149.693C684.813 150.855 684.403 152.256 684.242 153.896C684.076 155.574 684.196 157.06 684.601 158.356C685.015 159.653 685.674 160.694 686.577 161.478C687.489 162.262 688.605 162.72 689.924 162.85C690.791 162.935 691.593 162.862 692.329 162.63C693.066 162.399 693.707 162.024 694.253 161.507C694.799 160.99 695.214 160.346 695.5 159.575L698.836 159.904C698.521 161.167 697.941 162.275 697.095 163.229C696.259 164.174 695.204 164.889 693.929 165.372C692.664 165.846 691.23 166.005 689.628 165.847ZM712.644 168.118C710.552 167.911 708.793 167.271 707.367 166.198C705.951 165.116 704.916 163.701 704.26 161.952C703.615 160.195 703.403 158.204 703.622 155.98C703.842 153.756 704.44 151.836 705.418 150.219C706.406 148.595 707.678 147.378 709.232 146.571C710.797 145.754 712.56 145.443 714.52 145.636C715.651 145.748 716.749 146.047 717.815 146.532C718.88 147.018 719.823 147.73 720.644 148.667C721.466 149.595 722.077 150.778 722.478 152.217C722.878 153.655 722.978 155.387 722.779 157.413L722.639 158.827L705.902 157.175L706.187 154.292L719.531 155.609C719.652 154.383 719.515 153.266 719.12 152.256C718.734 151.248 718.121 150.421 717.28 149.777C716.449 149.134 715.431 148.752 714.224 148.633C712.896 148.502 711.713 148.719 710.678 149.282C709.652 149.838 708.829 150.613 708.207 151.608C707.586 152.603 707.216 153.699 707.098 154.896L706.908 156.818C706.746 158.458 706.892 159.876 707.345 161.072C707.808 162.259 708.519 163.2 709.478 163.894C710.439 164.579 711.592 164.988 712.94 165.121C713.816 165.207 714.62 165.163 715.351 164.988C716.092 164.804 716.747 164.488 717.315 164.04C717.883 163.582 718.346 162.99 718.703 162.264L721.837 163.487C721.39 164.546 720.725 165.451 719.842 166.202C718.96 166.942 717.907 167.486 716.683 167.831C715.461 168.167 714.114 168.263 712.644 168.118ZM743.005 158.153L742.698 161.263L730.711 160.08L731.018 156.97L743.005 158.153ZM732.73 147.719L730.588 169.432L727.252 169.102L729.394 147.39L732.73 147.719ZM746.47 149.075L744.328 170.787L740.992 170.458L743.134 148.745L746.47 149.075ZM750.918 171.438L753.061 149.725L756.397 150.054L754.254 171.767L750.918 171.438ZM755.114 146.274C754.464 146.209 753.925 145.933 753.497 145.443C753.079 144.955 752.901 144.399 752.962 143.777C753.024 143.155 753.307 142.646 753.813 142.248C754.327 141.852 754.91 141.686 755.56 141.75C756.211 141.814 756.745 142.091 757.163 142.579C757.59 143.068 757.773 143.624 757.712 144.246C757.651 144.868 757.362 145.377 756.848 145.774C756.342 146.171 755.764 146.338 755.114 146.274ZM761.454 153.693L761.761 150.583L779.402 152.324L779.095 155.434L771.971 154.731L770.135 173.334L766.799 173.005L768.635 154.402L761.454 153.693ZM798.377 163.617L798.07 166.727L786.083 165.544L786.39 162.434L798.377 163.617ZM788.102 153.183L785.96 174.895L782.623 174.566L784.766 152.854L788.102 153.183ZM801.842 154.539L799.7 176.251L796.364 175.922L798.506 154.209L801.842 154.539ZM810.111 172.311L822.229 156.55L826.074 156.93L823.931 178.642L820.595 178.313L822.252 161.52L810.191 177.287L806.29 176.902L808.432 155.189L811.768 155.518L810.111 172.311ZM849.758 159.267L847.922 177.869L850.976 178.171L849.977 188.292L846.641 187.963L847.333 180.951L830.539 179.294L832.682 157.582L836.018 157.911L834.182 176.514L844.586 177.54L846.422 158.937L849.758 159.267ZM868.977 183.087L870.819 164.428L865.051 163.859C863.751 163.73 862.699 163.931 861.895 164.461C861.091 164.99 860.636 165.783 860.532 166.839C860.43 167.875 860.684 168.723 861.295 169.383C861.915 170.044 862.814 170.432 863.992 170.548L871.003 171.24L870.696 174.35L863.685 173.658C862.214 173.513 860.973 173.129 859.959 172.506C858.945 171.882 858.198 171.062 857.718 170.044C857.239 169.016 857.065 167.838 857.196 166.509C857.328 165.171 857.743 164.051 858.441 163.149C859.139 162.248 860.075 161.593 861.247 161.185C862.429 160.779 863.798 160.652 865.353 160.805L874.286 161.687L872.144 183.4L868.977 183.087ZM854.502 181.659L861.731 171.467L865.35 171.824L858.121 182.016L854.502 181.659Z" fill="black"/>
<path d="M928.351 183.017L943.822 170.325L941.754 167.86L928.798 178.489L923.416 171.929L920.956 173.947L928.351 183.017ZM930.216 194.154C927.397 193.876 924.826 193.112 922.504 191.861C920.182 190.61 918.214 189.001 916.6 187.033C914.985 185.065 913.792 182.82 913.019 180.299C912.246 177.777 911.999 175.107 912.277 172.287C912.552 169.501 913.315 166.947 914.565 164.625C915.816 162.303 917.425 160.335 919.393 158.72C921.362 157.106 923.607 155.904 926.13 155.114C928.653 154.325 931.325 154.069 934.144 154.348C936.931 154.623 939.484 155.394 941.804 156.661C944.124 157.928 946.091 159.546 947.706 161.514C949.321 163.482 950.523 165.728 951.312 168.251C952.101 170.774 952.358 173.429 952.084 176.215C951.805 179.035 951.033 181.605 949.765 183.925C948.498 186.245 946.88 188.212 944.912 189.827C942.944 191.441 940.699 192.635 938.178 193.408C935.657 194.18 933.003 194.429 930.216 194.154ZM930.511 191.169C935.321 191.644 939.502 190.423 943.056 187.508C946.609 184.593 948.623 180.73 949.098 175.92C949.573 171.11 948.352 166.929 945.437 163.375C942.522 159.822 938.66 157.808 933.85 157.333C929.04 156.859 924.858 158.079 921.304 160.994C917.751 163.909 915.737 167.772 915.262 172.582C914.788 177.392 916.008 181.573 918.923 185.127C921.838 188.68 925.701 190.694 930.511 191.169Z" fill="black"/>
<path d="M167.252 257.363L171.21 286.183L167.72 286.662L164.187 260.938L149.665 262.932L153.197 288.657L149.707 289.136L145.749 260.316L167.252 257.363ZM184.725 284.843C183.355 285.031 182.077 284.944 180.89 284.581C179.701 284.209 178.711 283.576 177.919 282.681C177.126 281.777 176.632 280.621 176.439 279.214C176.269 277.975 176.375 276.938 176.757 276.102C177.138 275.256 177.706 274.557 178.462 274.004C179.218 273.451 180.073 272.999 181.029 272.647C181.992 272.286 182.967 271.97 183.953 271.701C185.243 271.352 186.29 271.079 187.095 270.882C187.908 270.675 188.487 270.438 188.832 270.171C189.187 269.902 189.328 269.5 189.255 268.966L189.239 268.853C189.049 267.465 188.521 266.438 187.655 265.773C186.799 265.107 185.606 264.879 184.077 265.089C182.491 265.306 181.296 265.824 180.491 266.642C179.685 267.46 179.154 268.288 178.896 269.126L175.589 268.434C175.972 267.043 176.582 265.917 177.42 265.057C178.265 264.185 179.227 263.528 180.303 263.083C181.388 262.629 182.474 262.326 183.562 262.177C184.257 262.082 185.066 262.057 185.989 262.102C186.921 262.136 187.844 262.349 188.758 262.739C189.681 263.129 190.495 263.796 191.198 264.741C191.901 265.687 192.371 267.018 192.607 268.735L194.563 282.976L191.242 283.432L190.84 280.505L190.671 280.528C190.51 281.028 190.204 281.582 189.752 282.189C189.3 282.795 188.663 283.346 187.842 283.842C187.021 284.337 185.982 284.671 184.725 284.843ZM184.822 281.79C186.136 281.61 187.207 281.2 188.037 280.56C188.876 279.919 189.469 279.159 189.817 278.28C190.174 277.399 190.291 276.508 190.167 275.608L189.75 272.568C189.632 272.756 189.344 272.954 188.885 273.16C188.433 273.356 187.905 273.548 187.3 273.736C186.704 273.914 186.119 274.08 185.548 274.235C184.985 274.379 184.528 274.499 184.178 274.595C183.33 274.826 182.549 275.12 181.833 275.476C181.125 275.822 180.576 276.275 180.184 276.835C179.801 277.385 179.667 278.082 179.783 278.926C179.942 280.08 180.488 280.894 181.423 281.368C182.366 281.831 183.499 281.972 184.822 281.79ZM199.206 282.338L198.781 279.242L199.569 279.134C200.216 279.045 200.738 278.845 201.135 278.532C201.53 278.21 201.815 277.707 201.989 277.024C202.171 276.33 202.252 275.391 202.233 274.209C202.222 273.016 202.125 271.509 201.942 269.689L201.022 260.066L215.432 258.087L218.401 279.702L215.08 280.158L212.536 261.639L204.599 262.729L205.321 270.487C205.489 272.271 205.544 273.854 205.486 275.239C205.436 276.613 205.229 277.788 204.866 278.765C204.513 279.741 203.969 280.513 203.234 281.083C202.5 281.652 201.532 282.019 200.332 282.184L199.206 282.338ZM237.992 277.012L235.441 258.436L229.7 259.225C228.405 259.402 227.428 259.842 226.77 260.545C226.111 261.247 225.854 262.123 225.998 263.174C226.14 264.206 226.584 264.972 227.332 265.471C228.088 265.97 229.053 266.138 230.226 265.977L237.206 265.019L237.631 268.114L230.651 269.073C229.187 269.274 227.89 269.189 226.759 268.819C225.628 268.449 224.711 267.824 224.007 266.946C223.302 266.058 222.859 264.953 222.677 263.63C222.494 262.298 222.637 261.112 223.106 260.073C223.575 259.033 224.332 258.179 225.378 257.51C226.433 256.839 227.734 256.397 229.282 256.185L238.176 254.963L241.145 276.579L237.992 277.012ZM223.582 278.991L228.241 267.397L231.844 266.902L227.185 278.496L223.582 278.991ZM260.51 261.359L260.936 264.455L249.002 266.094L248.577 262.998L260.51 261.359ZM248.089 253.602L251.058 275.217L247.737 275.673L244.768 254.058L248.089 253.602ZM261.768 251.724L264.736 273.339L261.415 273.795L258.447 252.18L261.768 251.724ZM273.945 267.085L282.063 248.936L285.891 248.411L288.859 270.026L285.538 270.482L283.242 253.764L275.181 271.904L271.297 272.438L268.328 250.823L271.65 250.366L273.945 267.085ZM309.469 245.173L312.012 263.692L315.052 263.275L316.435 273.35L313.114 273.807L312.156 266.827L295.438 269.123L292.469 247.507L295.79 247.051L298.333 265.57L308.691 264.148L306.147 245.629L309.469 245.173ZM333.703 263.867L331.152 245.292L325.411 246.08C324.116 246.258 323.139 246.698 322.481 247.4C321.822 248.102 321.565 248.979 321.709 250.03C321.851 251.062 322.295 251.827 323.043 252.327C323.799 252.825 324.764 252.994 325.937 252.833L332.917 251.874L333.342 254.97L326.362 255.929C324.898 256.13 323.601 256.045 322.47 255.675C321.339 255.304 320.422 254.68 319.718 253.802C319.013 252.914 318.57 251.809 318.388 250.486C318.205 249.154 318.348 247.968 318.817 246.928C319.286 245.889 320.043 245.035 321.089 244.365C322.144 243.695 323.445 243.253 324.993 243.041L333.887 241.819L336.856 263.434L333.703 263.867ZM319.293 265.846L323.952 254.252L327.555 253.758L322.896 265.352L319.293 265.846Z" fill="#36AEE5"/>
<path d="M812.882 522.675L815.365 493.69L832.858 495.189L832.591 498.303L818.608 497.105L817.832 506.162L825.192 506.793C827.267 506.971 828.988 507.461 830.355 508.262C831.731 509.064 832.734 510.115 833.364 511.414C834.003 512.714 834.251 514.203 834.107 515.883C833.963 517.562 833.464 519.012 832.608 520.231C831.762 521.451 830.591 522.363 829.095 522.967C827.608 523.571 825.826 523.784 823.751 523.606L812.882 522.675ZM816.653 519.919L824.013 520.549C825.334 520.663 826.474 520.494 827.435 520.044C828.406 519.586 829.163 518.957 829.706 518.158C830.26 517.35 830.578 516.474 830.659 515.53C830.778 514.143 830.347 512.904 829.366 511.813C828.387 510.712 826.906 510.076 824.925 509.907L817.565 509.276L816.653 519.919ZM845.551 525.988C844.174 525.87 842.946 525.503 841.867 524.888C840.79 524.263 839.963 523.427 839.388 522.38C838.813 521.323 838.586 520.087 838.707 518.672C838.814 517.427 839.146 516.438 839.703 515.707C840.261 514.966 840.969 514.408 841.828 514.035C842.687 513.662 843.621 513.41 844.63 513.278C845.65 513.137 846.67 513.044 847.691 512.998C849.026 512.941 850.108 512.906 850.936 512.891C851.774 512.868 852.392 512.764 852.788 512.579C853.193 512.396 853.419 512.035 853.465 511.497L853.475 511.384C853.594 509.987 853.305 508.87 852.607 508.03C851.919 507.192 850.805 506.707 849.268 506.575C847.673 506.438 846.393 506.68 845.427 507.301C844.462 507.922 843.761 508.612 843.325 509.373L840.252 507.97C840.931 506.697 841.774 505.733 842.781 505.078C843.798 504.415 844.88 503.985 846.028 503.788C847.186 503.583 848.312 503.528 849.407 503.622C850.105 503.681 850.899 503.835 851.791 504.083C852.692 504.321 853.546 504.732 854.351 505.314C855.166 505.897 855.813 506.727 856.29 507.804C856.768 508.881 856.933 510.283 856.786 512.01L855.558 526.332L852.218 526.046L852.47 523.102L852.301 523.088C852.034 523.54 851.613 524.012 851.039 524.505C850.464 524.997 849.722 525.395 848.812 525.697C847.902 525.999 846.815 526.096 845.551 525.988ZM846.318 523.031C847.639 523.144 848.774 522.98 849.724 522.539C850.684 522.098 851.43 521.488 851.963 520.706C852.505 519.926 852.815 519.083 852.892 518.177L853.154 515.12C852.998 515.278 852.674 515.407 852.18 515.507C851.697 515.599 851.14 515.67 850.508 515.72C849.887 515.762 849.281 515.795 848.689 515.821C848.108 515.838 847.636 515.854 847.273 515.871C846.396 515.909 845.568 516.024 844.792 516.214C844.025 516.395 843.39 516.716 842.884 517.177C842.39 517.629 842.106 518.279 842.033 519.128C841.934 520.289 842.288 521.203 843.095 521.871C843.913 522.53 844.987 522.917 846.318 523.031ZM862.153 526.897L864.015 505.159L872.903 505.92C875.243 506.121 877.057 506.808 878.344 507.983C879.631 509.158 880.2 510.613 880.051 512.349C879.938 513.67 879.458 514.661 878.613 515.32C877.769 515.97 876.722 516.37 875.474 516.519C876.266 516.701 877.02 517.051 877.736 517.569C878.462 518.087 879.04 518.764 879.472 519.599C879.905 520.425 880.073 521.409 879.975 522.551C879.88 523.664 879.511 524.635 878.87 525.464C878.229 526.293 877.358 526.917 876.258 527.336C875.157 527.755 873.871 527.901 872.399 527.775L862.153 526.897ZM865.585 524.112L872.661 524.718C873.812 524.817 874.737 524.62 875.435 524.129C876.133 523.638 876.522 522.92 876.603 521.977C876.699 520.854 876.449 519.944 875.853 519.246C875.258 518.54 874.385 518.137 873.234 518.038L866.157 517.432L865.585 524.112ZM866.405 514.545L872.122 515.035C873.019 515.111 873.798 515.055 874.461 514.864C875.124 514.665 875.645 514.348 876.025 513.915C876.414 513.473 876.637 512.931 876.692 512.29C876.77 511.374 876.449 510.625 875.73 510.04C875.011 509.446 873.981 509.092 872.641 508.977L866.924 508.487L866.405 514.545ZM893.822 530.067C891.86 529.899 890.178 529.284 888.777 528.223C887.385 527.163 886.346 525.758 885.659 524.007C884.982 522.257 884.74 520.26 884.932 518.014C885.126 515.75 885.706 513.808 886.672 512.19C887.647 510.572 888.91 509.359 890.462 508.551C892.024 507.744 893.786 507.425 895.748 507.593C897.711 507.761 899.388 508.375 900.78 509.435C902.181 510.496 903.22 511.906 903.896 513.666C904.581 515.426 904.827 517.438 904.633 519.702C904.441 521.948 903.857 523.875 902.883 525.483C901.918 527.092 900.655 528.3 899.094 529.108C897.542 529.915 895.785 530.235 893.822 530.067ZM894.079 527.067C895.57 527.195 896.829 526.918 897.857 526.236C898.885 525.554 899.684 524.61 900.253 523.404C900.822 522.199 901.168 520.869 901.293 519.416C901.417 517.963 901.302 516.589 900.948 515.295C900.593 514 899.967 512.925 899.071 512.069C898.175 511.213 896.982 510.721 895.491 510.593C894 510.465 892.741 510.747 891.712 511.438C890.683 512.13 889.884 513.083 889.314 514.298C888.744 515.513 888.397 516.847 888.272 518.3C888.148 519.753 888.264 521.122 888.619 522.407C888.975 523.693 889.601 524.758 890.498 525.605C891.395 526.452 892.589 526.939 894.079 527.067ZM909.308 530.938L911.171 509.199L920.059 509.961C922.399 510.162 924.212 510.849 925.499 512.024C926.786 513.199 927.355 514.654 927.206 516.39C927.093 517.711 926.614 518.701 925.768 519.361C924.924 520.011 923.877 520.41 922.629 520.56C923.421 520.742 924.175 521.092 924.891 521.609C925.617 522.128 926.196 522.805 926.628 523.64C927.061 524.466 927.228 525.45 927.13 526.591C927.035 527.705 926.667 528.676 926.025 529.505C925.384 530.334 924.513 530.958 923.413 531.377C922.313 531.796 921.026 531.942 919.554 531.816L909.308 530.938ZM912.74 528.153L919.816 528.759C920.968 528.858 921.892 528.661 922.59 528.17C923.288 527.678 923.677 526.961 923.758 526.017C923.854 524.895 923.604 523.985 923.008 523.287C922.413 522.58 921.54 522.178 920.389 522.079L913.313 521.473L912.74 528.153ZM913.56 518.585L919.278 519.075C920.174 519.152 920.953 519.095 921.616 518.905C922.279 518.705 922.801 518.389 923.18 517.956C923.57 517.514 923.792 516.972 923.847 516.33C923.925 515.415 923.605 514.665 922.885 514.081C922.166 513.487 921.136 513.133 919.797 513.018L914.079 512.528L913.56 518.585ZM947.796 521.747L947.53 524.861L935.528 523.832L935.795 520.719L947.796 521.747ZM937.388 511.446L935.525 533.185L932.185 532.898L934.048 511.16L937.388 511.446ZM951.144 512.625L949.281 534.363L945.941 534.077L947.804 512.339L951.144 512.625ZM962.233 535.986C960.855 535.868 959.627 535.502 958.549 534.887C957.472 534.262 956.645 533.426 956.069 532.379C955.495 531.322 955.268 530.086 955.389 528.671C955.496 527.425 955.828 526.437 956.385 525.705C956.942 524.964 957.651 524.407 958.51 524.034C959.368 523.661 960.303 523.408 961.312 523.276C962.331 523.135 963.352 523.042 964.372 522.997C965.708 522.94 966.79 522.904 967.618 522.89C968.456 522.867 969.073 522.763 969.469 522.578C969.875 522.394 970.101 522.033 970.147 521.496L970.156 521.382C970.276 519.986 969.987 518.868 969.289 518.029C968.6 517.191 967.487 516.706 965.949 516.574C964.355 516.437 963.075 516.679 962.109 517.3C961.143 517.92 960.443 518.611 960.007 519.372L956.934 517.968C957.613 516.696 958.456 515.732 959.462 515.077C960.479 514.413 961.562 513.983 962.709 513.787C963.868 513.582 964.994 513.526 966.088 513.62C966.786 513.68 967.581 513.834 968.472 514.081C969.374 514.32 970.227 514.731 971.033 515.313C971.848 515.896 972.494 516.726 972.972 517.803C973.45 518.88 973.615 520.282 973.467 522.008L972.24 536.331L968.9 536.044L969.152 533.101L968.982 533.086C968.715 533.539 968.295 534.011 967.72 534.503C967.146 534.996 966.404 535.393 965.494 535.696C964.584 535.998 963.497 536.095 962.233 535.986ZM962.999 533.03C964.32 533.143 965.456 532.979 966.406 532.538C967.366 532.097 968.112 531.486 968.645 530.705C969.187 529.924 969.497 529.081 969.574 528.176L969.836 525.119C969.68 525.276 969.355 525.405 968.862 525.506C968.379 525.597 967.822 525.668 967.19 525.719C966.569 525.761 965.962 525.794 965.371 525.819C964.79 525.836 964.318 525.853 963.955 525.869C963.077 525.908 962.25 526.023 961.474 526.213C960.707 526.394 960.071 526.715 959.566 527.175C959.071 527.627 958.787 528.278 958.715 529.127C958.615 530.287 958.969 531.202 959.777 531.87C960.595 532.529 961.669 532.916 962.999 533.03Z" fill="black"/>
<path d="M384.812 251.903L466.812 339.403L650.812 279.403L748.312 188.403M466.812 602.403C478.012 587.203 512.812 522.736 528.812 492.403M748.312 492.403L698.812 469.403" stroke="#7AD6FF" stroke-dasharray="14 14"/>
<path d="M747.812 389.403C747.812 477.768 676.178 549.403 587.812 549.403C499.447 549.403 427.812 477.768 427.812 389.403C427.812 301.037 499.447 229.403 587.812 229.403C676.178 229.403 747.812 301.037 747.812 389.403Z" fill="#7AD6FF"/>
<path d="M619.527 339.691C612.12 374.89 612.12 393.774 612.12 393.774C612.12 393.774 623.785 392.506 625.528 402.883C626.935 412.124 619.527 415.127 610.31 417.229C608.298 413.159 605.785 408.087 603.103 402.883C596.632 389.676 593.382 375.136 593.617 360.444V301.957C594.281 293.833 591.799 285.764 586.678 279.403C581.558 285.764 579.076 293.833 579.74 301.957V360.444C579.975 375.136 576.725 389.676 570.254 402.883C567.572 408.087 565.058 413.159 563.047 417.229C553.829 415.127 546.287 412.124 547.829 402.883C549.438 392.506 561.237 393.774 561.237 393.774C561.237 393.774 561.237 374.89 553.863 339.691C546.488 304.492 520.812 294.416 520.812 294.416V454.13H558.623C559.48 462.215 562.501 469.923 567.371 476.45C575.449 487.127 586.812 490.463 586.812 497.403C586.812 490.463 598.176 487.127 606.254 476.45C611.124 469.923 614.145 462.215 615.002 454.13H652.812V294.416C652.812 294.416 626.801 304.492 619.527 339.691ZM531.841 318.639C537.745 324.451 542.001 331.714 544.176 339.691C547.025 351.936 549.841 384.032 549.841 384.032C549.841 384.032 539.416 390.705 539.416 398.145H531.841V318.639ZM556.812 441.551H531.841V409.489H538.544C540.026 413.834 542.657 417.702 546.161 420.685C549.665 423.668 553.912 425.655 558.455 426.438C557.503 431.424 556.954 436.478 556.812 441.551ZM581.215 475.816C574.663 470.251 570.275 462.578 568.812 454.13H581.215V475.816ZM581.215 441.551H567.338C567.015 436.992 567.773 432.421 569.55 428.206C582.991 430.808 581.114 441.551 581.114 441.551H581.215ZM586.578 429.607C586.578 424.87 580.645 421.733 572.835 419.598C578.514 409.546 583.131 398.935 586.611 387.935C590.092 398.935 594.709 409.546 600.388 419.598C592.578 421.8 586.645 424.936 586.645 429.607V430.141L586.578 429.607ZM591.907 475.816V454.13H604.31C602.821 462.592 598.396 470.267 591.807 475.816H591.907ZM605.885 441.551H592.008C592.008 441.551 590.131 430.808 603.673 428.206C605.415 432.429 606.139 437 605.784 441.551H605.885ZM641.282 441.551H616.31C616.19 436.48 615.663 431.426 614.734 426.438C619.277 425.655 623.524 423.668 627.028 420.685C630.532 417.702 633.163 413.834 634.645 409.489H641.349L641.282 441.551ZM641.282 398.178H633.505C633.505 390.638 623.081 384.065 623.081 384.065C623.081 384.065 625.896 351.969 628.745 339.725C630.92 331.747 635.176 324.484 641.081 318.672L641.282 398.178Z" fill="white"/>
<path d="M496.812 627.403C496.812 647.285 480.695 663.403 460.812 663.403C440.93 663.403 424.812 647.285 424.812 627.403C424.812 607.52 440.93 591.403 460.812 591.403C480.695 591.403 496.812 607.52 496.812 627.403Z" fill="#7AD6FF" fill-opacity="0.55"/>
<path d="M463.812 620.003C463.812 619.803 463.879 619.611 464.013 619.428C464.146 619.244 464.296 619.119 464.463 619.053C465.463 618.686 466.487 618.403 467.537 618.203C468.587 618.003 469.679 617.903 470.812 617.903C471.546 617.903 472.263 617.944 472.963 618.028C473.663 618.111 474.346 618.236 475.013 618.403C475.213 618.469 475.396 618.594 475.562 618.778C475.729 618.961 475.812 619.169 475.812 619.403C475.812 619.769 475.688 620.053 475.438 620.253C475.188 620.453 474.879 620.503 474.513 620.403C473.946 620.236 473.354 620.111 472.737 620.028C472.121 619.944 471.479 619.903 470.812 619.903C469.846 619.903 468.912 619.994 468.013 620.178C467.113 620.361 466.229 620.636 465.362 621.003C464.896 621.169 464.521 621.161 464.237 620.978C463.954 620.794 463.812 620.469 463.812 620.003ZM463.812 631.003C463.812 630.803 463.879 630.603 464.013 630.403C464.146 630.203 464.296 630.069 464.463 630.003C465.463 629.636 466.487 629.361 467.537 629.178C468.587 628.994 469.679 628.903 470.812 628.903C471.546 628.903 472.263 628.944 472.963 629.028C473.663 629.111 474.346 629.236 475.013 629.403C475.213 629.469 475.396 629.594 475.562 629.778C475.729 629.961 475.812 630.169 475.812 630.403C475.812 630.769 475.688 631.053 475.438 631.253C475.188 631.453 474.879 631.503 474.513 631.403C473.946 631.236 473.354 631.111 472.737 631.028C472.121 630.944 471.479 630.903 470.812 630.903C469.846 630.903 468.912 630.986 468.013 631.153C467.113 631.319 466.229 631.586 465.362 631.953C464.896 632.119 464.521 632.119 464.237 631.953C463.954 631.786 463.812 631.469 463.812 631.003ZM463.812 625.503C463.812 625.303 463.879 625.111 464.013 624.928C464.146 624.744 464.296 624.619 464.463 624.553C465.463 624.186 466.487 623.903 467.537 623.703C468.587 623.503 469.679 623.403 470.812 623.403C471.546 623.403 472.263 623.444 472.963 623.528C473.663 623.611 474.346 623.736 475.013 623.903C475.213 623.969 475.396 624.094 475.562 624.278C475.729 624.461 475.812 624.669 475.812 624.903C475.812 625.269 475.688 625.553 475.438 625.753C475.188 625.953 474.879 626.003 474.513 625.903C473.946 625.736 473.354 625.611 472.737 625.528C472.121 625.444 471.479 625.403 470.812 625.403C469.846 625.403 468.912 625.494 468.013 625.678C467.113 625.861 466.229 626.136 465.362 626.503C464.896 626.669 464.521 626.661 464.237 626.478C463.954 626.294 463.812 625.969 463.812 625.503ZM448.212 635.403C450.013 635.403 451.754 635.611 453.438 636.028C455.121 636.444 456.779 637.069 458.412 637.903V616.553C456.912 615.553 455.288 614.778 453.538 614.228C451.788 613.678 450.013 613.403 448.212 613.403C446.946 613.403 445.704 613.561 444.487 613.878C443.271 614.194 442.046 614.586 440.812 615.053V636.753C441.846 636.286 443.021 635.944 444.337 635.728C445.654 635.511 446.946 635.403 448.212 635.403ZM461.412 637.903C463.079 637.069 464.713 636.444 466.312 636.028C467.912 635.611 469.612 635.403 471.412 635.403C472.679 635.403 473.988 635.503 475.338 635.703C476.688 635.903 477.846 636.169 478.812 636.503V615.053C477.679 614.486 476.479 614.069 475.213 613.803C473.946 613.536 472.679 613.403 471.412 613.403C469.612 613.403 467.871 613.678 466.188 614.228C464.504 614.778 462.912 615.553 461.412 616.553V637.903ZM459.912 641.853C459.646 641.853 459.404 641.828 459.188 641.778C458.971 641.728 458.779 641.636 458.612 641.503C457.046 640.536 455.379 639.786 453.612 639.253C451.846 638.719 450.046 638.453 448.212 638.453C446.979 638.453 445.779 638.603 444.612 638.903C443.446 639.203 442.279 639.569 441.112 640.003C440.346 640.369 439.604 640.319 438.887 639.853C438.171 639.386 437.812 638.719 437.812 637.853V614.703C437.812 614.203 437.929 613.744 438.163 613.328C438.396 612.911 438.746 612.586 439.212 612.353C440.612 611.686 442.071 611.194 443.587 610.878C445.104 610.561 446.646 610.403 448.212 610.403C450.312 610.403 452.354 610.686 454.337 611.253C456.321 611.819 458.179 612.686 459.912 613.853C461.612 612.686 463.438 611.819 465.388 611.253C467.338 610.686 469.346 610.403 471.412 610.403C472.979 610.403 474.513 610.561 476.013 610.878C477.513 611.194 478.962 611.686 480.362 612.353C480.829 612.586 481.188 612.911 481.438 613.328C481.688 613.744 481.812 614.203 481.812 614.703V637.853C481.812 638.786 481.438 639.494 480.688 639.978C479.938 640.461 479.196 640.469 478.463 640.003C477.329 639.536 476.179 639.161 475.013 638.878C473.846 638.594 472.646 638.453 471.412 638.453C469.612 638.453 467.846 638.719 466.112 639.253C464.379 639.786 462.746 640.536 461.213 641.503C461.046 641.636 460.854 641.728 460.638 641.778C460.421 641.828 460.179 641.853 459.912 641.853Z" fill="black"/>
</g>
<defs>
<clipPath id="clip0_457_28">
<rect width="1161" height="735" fill="white"/>
</clipPath>
</defs>
</svg>
