<svg width="87" height="49" viewBox="0 0 87 49" fill="none" xmlns="http://www.w3.org/2000/svg">
<path d="M16.6571 7.2257H19.4087V21.5465C19.4087 23.2731 19.8732 24.5898 20.8022 25.4965C21.7312 26.4033 23.0024 26.8573 24.6158 26.8585C26.3608 26.8585 27.7698 26.2477 28.8429 25.0262C29.916 23.8046 30.4525 22.2411 30.4525 20.3357V7.2257L33.2042 6.88945V19.9692C33.2042 22.7499 32.436 25.0362 30.8996 26.8283C29.3633 28.6204 27.2687 29.517 24.6158 29.5183C22.3168 29.5183 20.4153 28.8798 18.9113 27.6028C17.4072 26.3258 16.6558 24.4764 16.6571 22.0547V7.2257Z" fill="#2E2E2E"/>
<path d="M65.5216 14.6742L72.8506 36.47H69.799L67.5448 29.745H58.2931L55.0757 36.8062L52.3558 35.9996L62.3042 14.6818L65.5216 14.6742ZM63.6306 18.0367L59.4854 27.1475H66.6822L63.6306 18.0367Z" fill="#2E2E2E"/>
<path d="M37.5393 40.4256C37.283 40.426 37.0322 40.3497 36.8184 40.2064C34.9554 38.954 32.2689 37.1688 31.4306 36.6475H18.071C13.28 36.642 8.6867 34.7097 5.29889 31.2745C1.91109 27.8393 0.00542396 23.1818 0 18.3238C0.00493179 13.4655 1.91044 8.80773 5.29835 5.37245C8.68626 1.93717 13.2798 0.00503179 18.071 3.10476e-05H31.7752C35.445 -0.00683421 39.029 1.12499 42.0459 3.24352C44.9892 5.30157 47.2632 8.19978 48.5795 11.5704L46.1576 12.5452C45.0239 9.61758 43.0441 7.10572 40.4779 5.33898C37.9118 3.57224 34.8789 2.63309 31.7771 2.64469H18.0729C13.9733 2.64919 10.0428 4.30253 7.14392 7.24195C4.24503 10.1814 2.6145 14.1668 2.61006 18.3238C2.61499 22.4806 4.24569 26.4657 7.14447 29.405C10.0432 32.3443 13.9734 33.9978 18.0729 34.0028H31.7771C31.923 34.0029 32.0678 34.0278 32.2056 34.0765C32.349 34.1256 32.5316 34.1898 35.2237 35.9655L34.961 35.1079C34.9095 34.9383 34.8921 34.7599 34.9101 34.5833C34.928 34.4068 34.9808 34.2357 35.0653 34.0803C35.1495 33.925 35.2637 33.7884 35.401 33.6787C35.5383 33.569 35.6959 33.4885 35.8645 33.4418C36.9634 33.1383 38.0256 32.7119 39.0316 32.1704L40.2556 34.5072C39.4792 34.9256 38.6734 35.2854 37.8449 35.5839L38.7969 38.7065C38.8761 38.9673 38.8739 39.2465 38.7905 39.5058C38.7072 39.7652 38.5467 39.9921 38.3311 40.1554C38.1035 40.3311 37.8253 40.426 37.5393 40.4256Z" fill="#2E2E2E"/>
<path d="M49.1067 49C48.7935 49.0003 48.4906 48.8863 48.2534 48.6789C48.0468 48.4981 47.9013 48.2561 47.8375 47.987C47.7736 47.7179 47.7947 47.4353 47.8976 47.179L49.0527 44.3076C45.5685 43.0165 42.5591 40.6721 40.4311 37.5911C38.3031 34.5101 37.1591 30.841 37.1537 27.0795C37.1592 22.2215 39.0648 17.564 42.4526 14.1288C45.8404 10.6936 50.4337 8.76132 55.2248 8.75582H68.929C73.72 8.76132 78.3133 10.6936 81.7011 14.1288C85.0889 17.564 86.9946 22.2215 87 27.0795C86.9951 31.9378 85.0896 36.5956 81.7017 40.0308C78.3138 43.4661 73.7202 45.3983 68.929 45.4033H55.5415C54.7385 45.8547 52.1117 47.4132 49.7662 48.8168C49.5663 48.9362 49.3387 48.9995 49.1067 49ZM55.2248 11.408C51.1251 11.4125 47.1947 13.0659 44.2958 16.0053C41.3969 18.9447 39.7664 22.9301 39.7619 27.0871C39.766 30.5227 40.8807 33.8622 42.9352 36.5941C44.9898 39.326 47.871 41.2996 51.1374 42.2127C51.3153 42.2621 51.4809 42.3494 51.6232 42.4685C51.7655 42.5877 51.8812 42.7362 51.9627 42.9041C52.0445 43.0717 52.0902 43.255 52.097 43.442C52.1037 43.6289 52.0713 43.8151 52.0018 43.9884L51.7708 44.5551C54.5075 42.9343 54.6882 42.8701 54.7963 42.8323C54.934 42.7832 55.0789 42.7583 55.2248 42.7586H68.929C73.0286 42.7541 76.9591 41.1008 79.8579 38.1613C82.7568 35.2219 84.3874 31.2365 84.3918 27.0795C84.3874 22.9226 82.7568 18.9372 79.8579 15.9977C76.9591 13.0583 73.0286 11.405 68.929 11.4005L55.2248 11.408Z" fill="#2E2E2E"/>
</svg>
